<?xml version="1.0" encoding="UTF-8" standalone="no"?>
<svg
   width="32"
   height="32"
   viewBox="0 0 256 256"
   version="1.1"
   id="svg4"
   sodipodi:docname="add-user.svg"
   inkscape:version="1.1 (c68e22c387, 2021-05-23)"
   xmlns:inkscape="http://www.inkscape.org/namespaces/inkscape"
   xmlns:sodipodi="http://sodipodi.sourceforge.net/DTD/sodipodi-0.dtd"
   xmlns="http://www.w3.org/2000/svg"
   xmlns:svg="http://www.w3.org/2000/svg">
  <defs
     id="defs8" />
  <sodipodi:namedview
     id="namedview6"
     pagecolor="#ffffff"
     bordercolor="#666666"
     borderopacity="1.0"
     inkscape:pageshadow="2"
     inkscape:pageopacity="0.0"
     inkscape:pagecheckerboard="0"
     showgrid="false"
     inkscape:zoom="26.8125"
     inkscape:cx="16"
     inkscape:cy="16.018648"
     inkscape:window-width="1920"
     inkscape:window-height="1017"
     inkscape:window-x="-8"
     inkscape:window-y="-8"
     inkscape:window-maximized="1"
     inkscape:current-layer="svg4" />
  <path
     fill="ffff"
     d="M170 56a6 6 0 0 1 6-6h18V32a6 6 0 0 1 12 0v18h18a6 6 0 0 1 0 12h-18v18a6 6 0 0 1-12 0V62h-18a6 6 0 0 1-6-6m58.59 55A101.9 101.9 0 1 1 145 27.41a6 6 0 1 1-2 11.83A91.66 91.66 0 0 0 128 38a89.95 89.95 0 0 0-65.51 151.64a77.53 77.53 0 0 1 40-31.38a46 46 0 1 1 51 0a77.53 77.53 0 0 1 40 31.38A89.65 89.65 0 0 0 218 128a91.76 91.76 0 0 0-1.24-15a6 6 0 1 1 11.83-2M128 154a34 34 0 1 0-34-34a34 34 0 0 0 34 34m0 64a89.58 89.58 0 0 0 56.56-20a66 66 0 0 0-113.12 0A89.58 89.58 0 0 0 128 218"
     id="path2"
     style="fill:#fffff8;fill-opacity:1" />
</svg>
