<?xml version="1.0" encoding="UTF-8" standalone="no"?>
<svg
   width="32"
   height="32"
   viewBox="0 0 24 24"
   version="1.1"
   id="svg184"
   sodipodi:docname="edit.svg"
   inkscape:version="1.2 (dc2aeda, 2022-05-15)"
   xmlns:inkscape="http://www.inkscape.org/namespaces/inkscape"
   xmlns:sodipodi="http://sodipodi.sourceforge.net/DTD/sodipodi-0.dtd"
   xmlns="http://www.w3.org/2000/svg"
   xmlns:svg="http://www.w3.org/2000/svg">
  <defs
     id="defs188" />
  <sodipodi:namedview
     id="namedview186"
     pagecolor="#ffffff"
     bordercolor="#000000"
     borderopacity="0.25"
     inkscape:showpageshadow="2"
     inkscape:pageopacity="0.0"
     inkscape:pagecheckerboard="0"
     inkscape:deskcolor="#d1d1d1"
     showgrid="false"
     inkscape:zoom="10.418776"
     inkscape:cx="15.980763"
     inkscape:cy="16.076744"
     inkscape:window-width="1390"
     inkscape:window-height="1093"
     inkscape:window-x="0"
     inkscape:window-y="25"
     inkscape:window-maximized="0"
     inkscape:current-layer="svg184" />
  <path
     fill="currentColor"
     d="m 3.2030075,22.825882 q -0.865182,0 -1.4436392,-0.578458 Q 1.1809109,21.668967 1.1796586,20.802533 V 4.8160746 q 0,-0.865182 0.5797097,-1.4436393 0.5797095,-0.5784576 1.4436392,-0.5797096 h 8.9873755 q 0.313018,0 0.469527,0.1990794 0.156509,0.1978276 0.156509,0.4269567 0,0.2291295 -0.160264,0.4269568 Q 12.49589,4.043546 12.185376,4.044798 H 3.2030075 q -0.2892288,0 -0.5308785,0.240398 Q 2.4304787,4.5255937 2.4317309,4.8160746 V 20.803785 q 0,0.287978 0.2403981,0.529626 0.2403977,0.241651 0.5296266,0.240398 H 19.19072 q 0.287975,0 0.529626,-0.240398 0.241651,-0.240396 0.240399,-0.529626 V 11.69496 q 0,-0.313017 0.199078,-0.469526 0.197827,-0.156509 0.426959,-0.156509 0.229127,0 0.426956,0.156509 0.197828,0.156509 0.199078,0.469526 v 9.108825 q 0,0.86393 -0.578456,1.443639 -0.578459,0.57971 -1.444892,0.578458 z m 5.4890857,-8.524108 v -1.422353 q 0,-0.40442 0.1627696,-0.786303 0.165273,-0.381882 0.4369723,-0.653582 L 19.890627,0.8407449 q 0.207844,-0.20784399 0.435724,-0.28797665 0.227875,-0.0801347 0.482046,-0.0788827 0.236641,0 0.460764,0.0801293 0.224119,0.0801347 0.408176,0.26293516 L 23.069639,2.166684 q 0.200331,0.207844 0.303001,0.4570064 0.10267,0.2491624 0.103957,0.500829 0.0013,0.2516666 -0.0764,0.4782916 -0.07512,0.2253729 -0.282968,0.4319649 L 12.445817,14.707444 q -0.271698,0.271697 -0.653581,0.438223 -0.381881,0.167777 -0.786301,0.167777 H 9.7037778 q -0.4369709,0 -0.7236972,-0.287975 -0.286725,-0.287977 -0.287977,-0.723698 M 22.232002,3.1495664 20.839699,1.6846416 Z M 9.9441662,14.061376 H 11.311428 L 19.657743,5.7150624 18.974112,5.0314309 18.210348,4.3002209 9.9441662,12.566403 Z M 18.974112,5.0326832 18.210348,4.3002209 Z m 0,0 0.683631,0.6836313 z"
     id="path182"
     style="stroke-width:0.999992" />
</svg>
